<svg xmlns="http://www.w3.org/2000/svg" id="Layer_1" data-name="Layer 1" viewBox="23.91 0.04 120.89 168.78">
  <defs>
    <style>
      .cls-1 {
        fill: #e50913;
      }

      .cls-2 {
        fill: #fff;
      }
    </style>
  </defs>
  <path class="cls-1" d="M96.34,155.84c9.27-4.55,19.46-6.78,29.53-8.91,3.37-.71,13.13-3.19,15.93-2.92,3.39.34,4.06,4.67,1.21,6.25-14.16,3.89-30.17,5.09-43.47,11.53-6.31,3.05-10.17,7.68-17.96,6.96-6.24-.58-10.13-4.56-15.39-7.18-6.39-3.18-13.5-5.05-20.41-6.75-6.03-1.49-13.12-2.38-18.89-4.11-2.35-.7-3.82-2.79-2.45-5.09.96-1.61,2.34-1.73,4.07-1.57,3.97.36,9.86,2.02,13.94,2.93,6.52,1.45,13.05,2.93,19.33,5.21,3.13,1.13,6.13,2.5,9.15,3.89.38-.34-4.99-4.21-5.45-4.52-10.01-6.66-22.21-8.08-33.57-11.18l-1.86-42.37c.19-.28.56-.22.86-.19,1.15.09,3.5.86,4.74,1.19,15.19,4.09,30.29,11.28,39.61,24.36,3.81,5.34,6.23,11.43,8.91,17.37,4.99-11.16,10.85-21.5,20.73-29,9.85-7.48,21.75-11.25,33.66-14.11l.94.28-2.65,42.49c-.2.32-.53.36-.85.46-4.4,1.4-10.38,1.97-15.08,3.1-9.02,2.16-17.93,5.17-24.58,11.9v-.02ZM139.28,98c-18.03,3.69-34.57,10.68-45.4,26.13-4.07,5.8-6.08,11.59-9.33,17.62-.11.2-.21.48-.48.5-2.2-5.8-4.74-11.96-8.15-17.16-10.1-15.41-27.77-22.76-45.09-26.88l1.76,41.62c12.58,2.87,26.14,4.83,36.46,13.16,1.86,1.5,4.51,3.98,6.03,5.8.21.25.53.36.44.77-9.07-6.49-20.36-9.24-31.11-11.72-5.55-1.28-11.15-2.44-16.77-3.41-3.48-.07-4.18,4.37-.77,5.39,5.24,1.57,11.81,2.39,17.31,3.72,11.92,2.87,18.49,5.13,29.07,11.24,12.35,7.14,16.1,1.03,26.43-3.94,13.23-6.36,29.27-7.6,43.37-11.4,1.24-.78,1.63-2.36.91-3.66-.85-1.52-2.35-1.43-3.87-1.27-5.21.55-12.42,2.39-17.7,3.55-8.56,1.88-19.52,4.39-27.01,8.92-1.02.61-1.9,1.51-3,1.93,3.16-3.57,6.56-6.69,10.67-9.16,10.16-6.1,22.19-7.36,33.56-9.93l2.66-41.82h0Z"/>
  <path class="cls-2" d="M104.93,20.65c0,11.38-9.23,20.61-20.61,20.61s-20.61-9.23-20.61-20.61S72.94.04,84.32.04s20.61,9.23,20.61,20.61ZM104.47,20.42c0-11.04-8.95-19.98-19.98-19.98s-19.98,8.95-19.98,19.98,8.95,19.98,19.98,19.98,19.98-8.95,19.98-19.98Z"/>
  <path class="cls-2" d="M63.37,47.61h7.67l.33.54-18.84,22.35c-.19.24-.45.57-.44.88,0,.21,1.67,2.24,1.97,2.62,5.42,6.61,11.28,12.91,16.4,19.76l-.3.52h-7.89c-4.77-5.43-9.52-10.96-14.13-16.55-1.65-2-3.32-4.01-4.83-6.13l20.05-23.99h.01ZM70.71,48.05h-7.34l-19.35,23.33,18.69,22.23h7.12l-18.61-22.46,19.49-23.11h0Z"/>
  <path class="cls-2" d="M98.97,47.61h8l18.7,23.51-19.14,23.15h-7.45l-.31-.52,18.33-22.59c-4.86-6.26-10.09-12.26-14.94-18.53-.7-.9-2.54-3.03-2.94-3.85-.2-.4-.31-.71-.25-1.17h0ZM106.75,48.05h-6.9l18.12,22.89-18.56,22.68h6.9c6.16-7.32,12.19-14.75,18.37-22.05.13-.15.54-.25.58-.41l-18.51-23.11Z"/>
  <path class="cls-2" d="M93.71,47.61l-12.16,46.67h-6.57c-.23,0-.33-.48-.32-.74.03-.79.66-2.61.89-3.52,2.94-11.97,6.22-23.96,9.51-35.84.61-2.19,1.14-4.51,1.97-6.57h6.68ZM93.27,48.05h-5.92l-12.05,45.57h6.13l11.83-45.57h0Z"/>
  <path class="cls-1" d="M139.28,98l-2.66,41.82c-11.37,2.57-23.4,3.83-33.56,9.93-4.11,2.47-7.51,5.59-10.67,9.16,1.1-.42,1.98-1.31,3-1.93,7.5-4.52,18.45-7.03,27.01-8.92,5.28-1.16,12.49-3.01,17.7-3.55,1.51-.16,3.02-.25,3.87,1.27.72,1.3.33,2.87-.91,3.66-14.1,3.8-30.14,5.04-43.37,11.4-10.33,4.97-14.08,11.08-26.43,3.94-10.58-6.12-17.15-8.37-29.07-11.24-5.5-1.33-12.07-2.15-17.31-3.72-3.41-1.02-2.71-5.45.77-5.39,5.62.97,11.22,2.13,16.77,3.41,10.74,2.48,22.04,5.24,31.11,11.72.1-.41-.23-.52-.44-.77-1.52-1.81-4.17-4.3-6.03-5.8-10.32-8.33-23.88-10.29-36.46-13.16l-1.76-41.62c17.32,4.12,34.99,11.47,45.09,26.88,3.41,5.2,5.95,11.36,8.15,17.16.27-.02.37-.3.48-.5,3.25-6.03,5.26-11.82,9.33-17.62,10.83-15.46,27.37-22.44,45.4-26.13h0ZM132.93,105.23c-9.97,3.08-20.05,6.97-27.83,14.13-10.32,9.5-15.32,23.7-20.81,36.26-.56.09-.34-.05-.46-.31-4.5-10.08-7.78-21.2-14.66-30.03-8.04-10.3-20.49-15.92-32.64-19.83l1.56,29.66c.11.31.41.34.67.43,4.2,1.39,9.39,2.02,13.81,3.28,5.22,1.49,10.68,3.5,15.27,6.42,6.84,4.35,12.07,10.52,15.9,17.61,5.29-9.57,13.24-17.07,23.34-21.35,7.72-3.27,16.05-4.52,24.22-6.24l1.63-30.03h0Z"/>
  <path class="cls-2" d="M104.47,20.42c0,11.04-8.95,19.98-19.98,19.98s-19.98-8.95-19.98-19.98S73.46.44,84.49.44s19.98,8.95,19.98,19.98ZM98.99,20.43c0-7.95-6.45-14.4-14.4-14.4s-14.4,6.45-14.4,14.4,6.45,14.4,14.4,14.4,14.4-6.45,14.4-14.4Z"/>
  <polygon class="cls-2" points="70.71 48.05 51.22 71.16 69.83 93.62 62.71 93.62 44.02 71.38 63.37 48.05 70.71 48.05"/>
  <path class="cls-2" d="M106.75,48.05l18.51,23.11c-.04.16-.45.26-.58.41-6.18,7.3-12.22,14.73-18.37,22.05h-6.9l18.56-22.68-18.12-22.89h6.9,0Z"/>
  <polygon class="cls-2" points="93.27 48.05 81.44 93.62 75.31 93.62 87.36 48.05 93.27 48.05"/>
</svg>